# xmcd
#
# Track frame offsets:
#	150
#	16891
#	28128
#	43636
#	55500
#	73079
#	90231
#	109965
#	126263
#	150784
#	164361
#	183633
#	197002
#	213772
#	224006
#	244716
#
# Disc length: 3521 seconds
#
# Revision: 1
# Processed by: cddbd v1.5.2PL0 Copyright (c) Steve Scherf et al.
# Submitted via: EasyCDDAExtractor 12.0.1.1
#
DISCID=d70dbf10
DTITLE=Linda Ronstadt - 'Round Midnight [Cd2]
DYEAR=1990
DGENRE=Country
TTITLE0=Sophisticated Lady
TTITLE1=Can't We Be Friends
TTITLE2=My Old Flame
TTITLE3=Falling In Love Again
TTITLE4=Lush Life
TTITLE5=When You Wish Upon A Star
TTITLE6=Bewitched, Bothered and Bewildered
TTITLE7=You Go To My Head
TTITLE8=But Not For Me
TTITLE9=My Funny Valentine
TTITLE10=I Get Along Without You Very Well
TTITLE11=Am I Blue
TTITLE12=I Love You For Sentimental Reasons
TTITLE13=Straighten Up And Fly Right
TTITLE14=Little Girl Blue
TTITLE15='round Midnight
EXTD=
EXTT0=
EXTT1=
EXTT2=
EXTT3=
EXTT4=
EXTT5=
EXTT6=
EXTT7=
EXTT8=
EXTT9=
EXTT10=
EXTT11=
EXTT12=
EXTT13=
EXTT14=
EXTT15=
PLAYORDER=
